# Blender v2.78 (sub 0) OBJ File: 'coordinates_higher_poly.blend'
# www.blender.org
o coordinates_low_poly_Cone.003
v -0.053086 -0.000000 -0.474443
v 0.000000 -0.000000 -0.625000
v -0.042948 -0.031203 -0.474443
v -0.016405 -0.050488 -0.474443
v 0.016405 -0.050488 -0.474443
v 0.042948 -0.031203 -0.474443
v 0.053086 0.000000 -0.474443
v 0.042948 0.031203 -0.474443
v 0.016405 0.050488 -0.474443
v -0.016405 0.050488 -0.474443
v -0.042948 0.031203 -0.474443
v -0.021100 0.000017 -0.019572
v -0.021163 -0.000000 -0.474443
v -0.017228 -0.012549 -0.019491
v -0.017121 -0.012439 -0.474443
v -0.006456 -0.019995 -0.019610
v -0.006540 -0.020127 -0.474443
v 0.006572 -0.020204 -0.019514
v 0.006540 -0.020127 -0.474443
v 0.017843 -0.013042 -0.018801
v 0.017121 -0.012439 -0.474443
v 0.020841 -0.000166 -0.020848
v 0.021163 -0.000000 -0.474443
v 0.017531 0.012688 -0.020577
v 0.017121 0.012439 -0.474443
v 0.006641 0.020225 -0.020522
v 0.006540 0.020127 -0.474443
v -0.006611 0.019941 -0.020230
v -0.006540 0.020127 -0.474443
v -0.016984 0.012384 -0.019609
v -0.017121 0.012439 -0.474443
v 0.473580 -0.000000 -0.054611
v 0.625000 -0.000000 0.000000
v 0.473580 -0.032100 -0.044182
v 0.473580 -0.051939 -0.016876
v 0.473580 -0.051939 0.016876
v 0.473580 -0.032100 0.044182
v 0.473580 -0.000000 0.054612
v 0.473580 0.032100 0.044182
v 0.473580 0.051939 0.016876
v 0.473580 0.051939 -0.016876
v 0.473580 0.032100 -0.044182
v 0.000000 0.000000 0.000000
v 0.473580 -0.000000 -0.021845
v 0.018987 -0.013179 -0.018247
v 0.473580 -0.012840 -0.017673
v 0.019471 -0.020336 -0.006646
v 0.473580 -0.020776 -0.006750
v 0.019609 -0.020025 0.006436
v 0.473580 -0.020776 0.006750
v 0.019207 -0.013047 0.017803
v 0.473580 -0.012840 0.017673
v 0.019521 -0.000046 0.021247
v 0.473580 -0.000000 0.021845
v 0.019540 0.012410 0.017136
v 0.473580 0.012840 0.017673
v 0.020132 0.020044 0.007118
v 0.473580 0.020775 0.006750
v 0.473580 0.020775 -0.006750
v 0.020677 0.012993 -0.017967
v 0.473580 0.012840 -0.017673
v 0.000000 0.475000 -0.052777
v 0.000000 0.626652 0.000000
v 0.031021 0.475000 -0.042697
v 0.050194 0.475000 -0.016309
v 0.050194 0.475000 0.016309
v 0.031021 0.475000 0.042697
v -0.000000 0.475000 0.052777
v -0.031021 0.475000 0.042697
v -0.050194 0.475000 0.016309
v -0.050194 0.475000 -0.016309
v -0.031021 0.475000 -0.042697
v 0.000021 0.019973 -0.021365
v -0.000000 0.475000 -0.021259
v 0.012433 0.020460 -0.016952
v 0.012495 0.475000 -0.017199
v 0.020920 0.021115 -0.006907
v 0.020218 0.475000 -0.006569
v 0.019747 0.020336 0.007028
v 0.020218 0.475000 0.006569
v 0.012467 0.019520 0.017155
v 0.012495 0.475000 0.017199
v 0.000038 0.019668 0.020859
v -0.000000 0.475000 0.021259
v -0.012609 0.019411 0.017420
v -0.012495 0.475000 0.017199
v -0.019843 0.019667 0.006447
v -0.020218 0.475000 0.006569
v -0.020226 0.019507 -0.006606
v -0.020218 0.475000 -0.006569
v -0.012242 0.019739 -0.016801
v -0.012495 0.475000 -0.017199
v 0.020505 0.020478 -0.006580
v 0.018606 0.012121 -0.018721
v 0.016323 0.016299 -0.016499
vt 0.2241 0.1566
vt 0.2579 0.0049
vt 0.2492 0.1596
vt 0.2751 0.1631
vt 0.3084 0.1700
vt 0.6172 0.1560
vt 0.6762 -0.0001
vt 0.6506 0.1505
vt 0.6760 0.1482
vt 0.7001 0.1464
vt 0.7277 0.1448
vt 0.7644 0.1459
vt 0.1548 0.1528
vt 0.1956 0.1536
vt 0.2244 0.9432
vt 0.2415 0.1995
vt 0.2416 0.9431
vt 0.2594 0.9469
vt 0.2832 0.2040
vt 0.2789 0.9561
vt 0.6431 0.9563
vt 0.6613 0.1871
vt 0.6634 0.9539
vt 0.6828 0.9563
vt 0.7025 0.1875
vt 0.7017 0.9591
vt 0.7214 0.9605
vt 0.7441 0.1909
vt 0.7400 0.9567
vt 0.1864 0.9568
vt 0.1969 0.2013
vt 0.2067 0.9472
vt 0.2194 0.1999
vt 0.6406 0.1904
vt 0.2632 0.2002
vt 0.6820 0.1867
vt 0.7231 0.1897
vt 0.1747 0.2048
vt 0.0860 0.8447
vt 0.0636 0.9962
vt 0.0609 0.8436
vt 0.0338 0.8414
vt -0.0009 0.8364
vt 0.9124 0.8483
vt 0.8098 0.9893
vt 0.8726 0.8468
vt 0.8449 0.8435
vt 0.8207 0.8402
vt 0.7964 0.8365
vt 0.7644 0.8294
vt 0.1511 0.8440
vt 0.1126 0.8459
vt 0.0840 0.0418
vt 0.0655 0.8005
vt 0.0652 0.0464
vt 0.0471 0.0463
vt 0.0434 0.8012
vt 0.0283 0.0417
vt 0.8874 0.0356
vt 0.8720 0.8000
vt 0.8676 0.0417
vt 0.8498 0.0428
vt 0.8497 0.8014
vt 0.8318 0.0396
vt 0.8278 0.8022
vt 0.8121 0.0309
vt 0.8086 0.8011
vt 0.7921 0.0354
vt 0.1283 0.7981
vt 0.1033 0.0400
vt 0.1235 0.0416
vt 0.1083 0.8023
vt 0.8941 0.7967
vt 0.0873 0.8049
vt 0.6180 0.8481
vt 0.5194 0.9928
vt 0.5785 0.8477
vt 0.5510 0.8450
vt 0.5266 0.8422
vt 0.5011 0.8389
vt 0.4684 0.8324
vt 0.4529 0.8490
vt 0.3493 0.9946
vt 0.4123 0.8478
vt 0.3841 0.8447
vt 0.3592 0.8415
vt 0.3338 0.8378
vt 0.3009 0.8307
vt 0.5982 0.7984
vt 0.5705 0.0396
vt 0.5911 0.0394
vt 0.5770 0.8018
vt 0.5517 0.0398
vt 0.5342 0.8033
vt 0.5329 0.0399
vt 0.5128 0.8026
vt 0.5142 0.0422
vt 0.4955 0.0399
vt 0.4261 0.0419
vt 0.4114 0.8003
vt 0.4059 0.0504
vt 0.3882 0.0534
vt 0.3669 0.8021
vt 0.3709 0.0525
vt 0.3527 0.0474
vt 0.3459 0.8013
vt 0.3328 0.0421
vt 0.5555 0.8031
vt 0.4929 0.7989
vt 0.4336 0.7970
vt 0.3889 0.8017
vt 0.8111 0.0286
vt 0.7916 0.0334
vt 0.2334 0.9902
vt 0.1085 0.0321
vt 0.1245 0.0398
vt 0.1016 0.0360
vt 0.7137 0.9678
vt 0.7313 0.9600
vt 0.3432 0.0411
vt 0.3833 0.0076
vt 0.6634 0.9995
vt 0.8532 -0.0008
vt 0.0562 0.0031
vt 0.5142 -0.0008
vt 0.5668 0.0316
vt 0.6996 0.9628
vt 0.7058 0.9667
vt 0.0229 0.7983
vt 0.7888 0.7973
vt 0.3260 0.7973
vn -0.8587 0.0000 0.5125
vn 0.0000 0.0000 -1.0000
vn -0.6947 -0.5047 0.5125
vn -0.2653 -0.8166 0.5125
vn 0.2653 -0.8166 0.5125
vn 0.6947 -0.5047 0.5125
vn 0.8587 0.0000 0.5125
vn 0.6947 0.5047 0.5125
vn 0.2653 0.8166 0.5125
vn -0.2653 0.8166 0.5125
vn -0.6947 0.5047 0.5125
vn -0.9275 0.0113 0.3735
vn -0.5024 -0.3651 0.7838
vn -0.7470 -0.5479 0.3765
vn -0.2834 -0.8838 0.3721
vn 0.1918 -0.5907 0.7837
vn 0.2445 -0.8955 0.3717
vn 0.5025 -0.3649 0.7837
vn 0.7549 -0.5161 0.4047
vn 0.6970 -0.0084 -0.7169
vn 0.5027 0.3648 0.7837
vn 0.8122 0.5366 -0.2288
vn 0.1807 0.9790 -0.0945
vn -0.1920 0.5907 0.7837
vn -0.3468 0.9362 0.0561
vn -0.5024 0.3650 0.7838
vn -0.7428 0.5530 0.3774
vn -0.6210 0.0000 0.7838
vn -0.1919 -0.5906 0.7838
vn 0.6208 0.0000 0.7839
vn 0.1918 0.5910 0.7835
vn -0.5096 0.0000 -0.8604
vn 1.0000 0.0000 0.0000
vn -0.5096 -0.5057 -0.6961
vn -0.5096 -0.8183 -0.2658
vn -0.5096 -0.8183 0.2658
vn -0.5096 -0.5057 0.6961
vn -0.5096 0.0000 0.8604
vn -0.5096 0.5057 0.6961
vn -0.5096 0.8183 0.2658
vn -0.5096 0.8183 -0.2658
vn -0.5096 0.5057 -0.6961
vn -0.7841 -0.3646 -0.5022
vn -0.4016 -0.5101 -0.7606
vn -0.3764 -0.8955 -0.2373
vn -0.7841 -0.5903 -0.1916
vn -0.3723 -0.8907 0.2608
vn -0.7841 -0.3648 0.5020
vn -0.3865 -0.5510 0.7395
vn -0.3753 0.0302 0.9264
vn -0.7841 0.0000 0.6206
vn -0.3808 0.5433 0.7482
vn -0.7841 0.3647 0.5022
vn -0.0898 0.8389 0.5367
vn -0.7839 0.5904 0.1919
vn 0.8951 0.3295 -0.3002
vn -0.7837 0.5908 -0.1917
vn 0.1360 0.5423 -0.8291
vn -0.7839 0.3645 -0.5026
vn -0.7842 -0.5901 0.1917
vn -0.7844 0.0000 -0.6203
vn 0.0000 -0.5141 -0.8577
vn 0.0000 1.0000 0.0000
vn 0.5041 -0.5141 -0.6939
vn 0.8157 -0.5141 -0.2650
vn 0.8157 -0.5141 0.2650
vn 0.5041 -0.5141 0.6939
vn 0.0000 -0.5141 0.8577
vn -0.5041 -0.5141 0.6939
vn -0.8157 -0.5141 0.2650
vn -0.8157 -0.5141 -0.2650
vn -0.5041 -0.5141 -0.6939
vn 0.0001 -0.7837 -0.6211
vn 0.5666 0.3524 -0.7448
vn 0.0061 -0.6810 -0.7322
vn 0.3648 -0.7835 -0.5029
vn 0.9504 -0.2081 -0.2309
vn 0.5908 -0.7835 0.1923
vn 0.7863 0.0539 0.6154
vn 0.3648 -0.7839 0.5024
vn 0.5433 -0.3818 0.7476
vn 0.0120 -0.3698 0.9290
vn -0.3649 -0.7840 0.5022
vn -0.5426 -0.3793 0.7494
vn -0.8861 -0.3699 0.2792
vn -0.5904 -0.7840 -0.1918
vn -0.8798 -0.3766 -0.2900
vn -0.5724 -0.3541 -0.7395
vn -0.3652 -0.7838 -0.5022
vn 0.5913 -0.7832 -0.1921
vn 0.0000 -0.7840 0.6208
vn -0.5904 -0.7840 0.1918
vn -0.5864 -0.5661 0.5793
vn 0.5963 0.6381 -0.4870
vn 0.5643 0.4128 -0.7149
s 1
f 1/1/1 2/2/2 3/3/3
f 3/3/3 2/2/2 4/4/4
f 4/4/4 2/2/2 5/5/5
f 5/6/5 2/7/2 6/8/6
f 6/8/6 2/7/2 7/9/7
f 7/9/7 2/7/2 8/10/8
f 8/10/8 2/7/2 9/11/9
f 9/11/9 2/7/2 10/12/10
f 10/13/10 2/2/2 11/14/11
f 11/14/11 2/2/2 1/1/1
f 12/15/12 15/16/13 14/17/14
f 15/16/13 16/18/15 14/17/14
f 16/18/15 19/19/16 18/20/17
f 18/21/17 21/22/18 20/23/19
f 21/22/18 22/24/20 20/23/19
f 22/24/20 25/25/21 24/26/22
f 26/27/23 29/28/24 28/29/25
f 28/30/25 31/31/26 30/32/27
f 30/32/27 13/33/28 12/15/12
f 5/6/5 21/22/18 19/34/16
f 5/5/5 17/35/29 4/4/4
f 6/8/6 23/36/30 21/22/18
f 7/9/7 25/25/21 23/36/30
f 8/10/8 27/37/31 25/25/21
f 9/11/9 29/28/24 27/37/31
f 11/14/11 29/38/24 10/13/10
f 1/1/1 31/31/26 11/14/11
f 3/3/3 13/33/28 1/1/1
f 4/4/4 15/16/13 3/3/3
f 32/39/32 33/40/33 34/41/34
f 34/41/34 33/40/33 35/42/35
f 35/42/35 33/40/33 36/43/36
f 36/44/36 33/45/33 37/46/37
f 37/46/37 33/45/33 38/47/38
f 38/47/38 33/45/33 39/48/39
f 39/48/39 33/45/33 40/49/40
f 40/49/40 33/45/33 41/50/41
f 41/51/41 33/40/33 42/52/42
f 42/52/42 33/40/33 32/39/32
f 22/53/20 46/54/43 45/55/44
f 46/54/43 47/56/45 45/55/44
f 48/57/46 49/58/47 47/56/45
f 49/59/47 52/60/48 51/61/49
f 52/60/48 53/62/50 51/61/49
f 54/63/51 55/64/52 53/62/50
f 56/65/53 57/66/54 55/64/52
f 58/67/55 93/68/56 57/66/54
f 59/69/57 60/70/58 93/71/56
f 61/72/59 22/53/20 60/70/58
f 36/44/36 52/60/48 50/73/60
f 36/43/36 48/57/46 35/42/35
f 38/47/38 52/60/48 37/46/37
f 38/47/38 56/65/53 54/63/51
f 40/49/40 56/65/53 39/48/39
f 41/50/41 58/67/55 40/49/40
f 41/51/41 61/72/59 59/69/57
f 32/39/32 61/72/59 42/52/42
f 32/39/32 46/54/43 44/74/61
f 35/42/35 46/54/43 34/41/34
f 62/75/62 63/76/63 64/77/64
f 64/77/64 63/76/63 65/78/65
f 65/78/65 63/76/63 66/79/66
f 66/79/66 63/76/63 67/80/67
f 67/80/67 63/76/63 68/81/68
f 68/82/68 63/83/63 69/84/69
f 69/84/69 63/83/63 70/85/70
f 70/85/70 63/83/63 71/86/71
f 71/86/71 63/83/63 72/87/72
f 72/87/72 63/83/63 62/88/62
f 74/89/73 75/90/74 73/91/75
f 76/92/76 77/93/77 75/90/74
f 77/93/77 80/94/78 79/95/79
f 79/95/79 82/96/80 81/97/81
f 82/96/80 83/98/82 81/97/81
f 83/99/82 86/100/83 85/101/84
f 86/100/83 87/102/85 85/101/84
f 87/102/85 90/103/86 89/104/87
f 90/103/86 91/105/88 89/104/87
f 92/106/89 73/107/75 91/105/88
f 67/80/67 80/94/78 66/79/66
f 66/79/66 78/108/90 65/78/65
f 67/80/67 84/109/91 82/96/80
f 69/84/69 84/110/91 68/82/68
f 69/84/69 88/111/92 86/100/83
f 71/86/71 88/111/92 70/85/70
f 71/86/71 92/106/89 90/103/86
f 62/88/62 92/106/89 72/87/72
f 62/75/62 76/92/76 74/89/73
f 65/78/65 76/92/76 64/77/64
f 79/112/79 93/68/56 77/113/77
f 27/37/31 24/26/22 25/25/21
f 30/32/27 43/114/93 28/30/25
f 93/71/56 95/115/94 77/116/77
f 60/70/58 94/117/95 95/115/94
f 26/27/23 75/118/74 24/26/22
f 75/118/74 26/27/23 73/119/75
f 26/27/23 28/29/25 73/119/75
f 73/107/75 28/120/25 91/105/88
f 28/120/25 43/121/93 91/105/88
f 22/53/20 94/117/95 60/70/58
f 22/24/20 43/122/93 20/23/19
f 53/62/50 43/123/93 51/61/49
f 12/15/12 43/114/93 30/32/27
f 51/61/49 43/123/93 49/59/47
f 49/58/47 43/124/93 47/56/45
f 14/17/14 43/114/93 12/15/12
f 16/18/15 43/114/93 14/17/14
f 18/20/17 43/114/93 16/18/15
f 43/121/93 87/102/85 89/104/87
f 87/102/85 43/121/93 85/101/84
f 85/101/84 43/121/93 83/99/82
f 91/105/88 43/121/93 89/104/87
f 53/62/50 55/64/52 43/123/93
f 83/98/82 43/125/93 81/97/81
f 20/23/19 43/122/93 18/21/17
f 47/56/45 43/124/93 45/55/44
f 43/124/93 22/53/20 45/55/44
f 81/97/81 43/125/93 79/95/79
f 57/66/54 43/123/93 55/64/52
f 57/66/54 79/112/79 43/123/93
f 77/93/77 95/126/94 75/90/74
f 94/127/95 22/24/20 24/26/22
f 95/128/94 24/26/22 75/118/74
f 12/15/12 13/33/28 15/16/13
f 15/16/13 17/35/29 16/18/15
f 16/18/15 17/35/29 19/19/16
f 18/21/17 19/34/16 21/22/18
f 21/22/18 23/36/30 22/24/20
f 22/24/20 23/36/30 25/25/21
f 26/27/23 27/37/31 29/28/24
f 28/30/25 29/38/24 31/31/26
f 30/32/27 31/31/26 13/33/28
f 5/6/5 6/8/6 21/22/18
f 5/5/5 19/19/16 17/35/29
f 6/8/6 7/9/7 23/36/30
f 7/9/7 8/10/8 25/25/21
f 8/10/8 9/11/9 27/37/31
f 9/11/9 10/12/10 29/28/24
f 11/14/11 31/31/26 29/38/24
f 1/1/1 13/33/28 31/31/26
f 3/3/3 15/16/13 13/33/28
f 4/4/4 17/35/29 15/16/13
f 22/53/20 44/74/61 46/54/43
f 46/54/43 48/57/46 47/56/45
f 48/57/46 50/129/60 49/58/47
f 49/59/47 50/73/60 52/60/48
f 52/60/48 54/63/51 53/62/50
f 54/63/51 56/65/53 55/64/52
f 56/65/53 58/67/55 57/66/54
f 58/67/55 59/130/57 93/68/56
f 59/69/57 61/72/59 60/70/58
f 61/72/59 44/74/61 22/53/20
f 36/44/36 37/46/37 52/60/48
f 36/43/36 50/129/60 48/57/46
f 38/47/38 54/63/51 52/60/48
f 38/47/38 39/48/39 56/65/53
f 40/49/40 58/67/55 56/65/53
f 41/50/41 59/130/57 58/67/55
f 41/51/41 42/52/42 61/72/59
f 32/39/32 44/74/61 61/72/59
f 32/39/32 34/41/34 46/54/43
f 35/42/35 48/57/46 46/54/43
f 74/89/73 76/92/76 75/90/74
f 76/92/76 78/108/90 77/93/77
f 77/93/77 78/108/90 80/94/78
f 79/95/79 80/94/78 82/96/80
f 82/96/80 84/109/91 83/98/82
f 83/99/82 84/110/91 86/100/83
f 86/100/83 88/111/92 87/102/85
f 87/102/85 88/111/92 90/103/86
f 90/103/86 92/106/89 91/105/88
f 92/106/89 74/131/73 73/107/75
f 67/80/67 82/96/80 80/94/78
f 66/79/66 80/94/78 78/108/90
f 67/80/67 68/81/68 84/109/91
f 69/84/69 86/100/83 84/110/91
f 69/84/69 70/85/70 88/111/92
f 71/86/71 90/103/86 88/111/92
f 71/86/71 72/87/72 92/106/89
f 62/88/62 74/131/73 92/106/89
f 62/75/62 64/77/64 76/92/76
f 65/78/65 78/108/90 76/92/76
f 79/112/79 57/66/54 93/68/56
f 27/37/31 26/27/23 24/26/22
f 93/71/56 60/70/58 95/115/94
f 95/128/94 94/127/95 24/26/22
