# Blender v2.78 (sub 0) OBJ File: 'street_scooter.blend'
# www.blender.org
o Plane
v -39.431126 0.001000 64.899651
v -20.096571 0.001000 64.899651
v -61.830406 0.001000 0.061070
v -20.096571 0.001000 0.061070
v -61.830406 0.001000 18.269110
v -44.460991 0.001000 57.538612
v -44.460991 0.001000 18.268543
v 63.019627 0.001000 -0.037673
v 53.805630 0.001000 -45.317181
v -30.814079 0.001000 -46.957005
v 60.942467 19.625999 -22.103920
v 64.615631 0.001000 0.863745
v 0.020425 0.001000 54.693298
v 0.020425 0.001000 -0.037387
v -31.075661 0.001000 -22.445351
v 76.371246 7.001000 54.693729
v -20.096571 0.001000 50.044922
v -44.460991 0.001000 50.044922
v 27.108421 0.001000 54.693451
v 27.108421 0.001000 -0.037509
v -30.814079 20.000999 -46.957005
v -31.075661 20.000999 -22.445351
v 61.054390 20.000999 -21.399029
v 56.869118 20.000999 -45.256737
v 77.191315 25.000999 53.375725
v 64.615631 25.000999 0.863745
v 27.108421 25.000999 -0.037509
v 63.019627 25.000999 -0.037673
v 27.108421 25.000999 54.693451
v 76.371246 25.000999 54.693729
v 0.020425 10.001000 -0.037387
v 0.020425 10.001000 54.693298
v 27.108421 10.001000 54.693451
v 27.108421 10.001000 -0.037509
v -20.096571 10.001000 0.061070
v -61.830406 10.001000 0.061070
v -61.830406 10.001000 18.269110
v -20.096571 10.001000 50.044922
v -44.460991 10.001000 18.268543
v -44.460991 10.001000 50.044922
v -44.460991 17.000999 57.538612
v -39.431126 17.000999 64.899651
v -20.096571 17.000999 64.899651
v -44.460991 17.000999 50.044922
v -20.096571 17.000999 50.044922
v 61.054390 5.001000 -21.399029
v 56.869118 5.001000 -45.256737
v 50.868027 0.001000 -21.514378
v 50.868027 5.001000 -21.515053
v 53.805630 5.001000 -45.315098
v 56.966457 19.625999 -44.768742
v 60.942467 5.376000 -22.103920
v 56.966457 5.376000 -44.768742
v 60.110699 19.625999 -21.958008
v 56.134689 19.625999 -44.622829
v 60.110699 5.376000 -21.958008
v 56.134689 5.376000 -44.622829
v 74.274734 6.994852 52.120201
v 77.191315 7.001000 53.375725
v 65.524078 0.001000 54.693672
v 72.255844 0.001000 32.622295
v 72.186615 7.001000 32.622295
v 65.524078 7.001000 54.693672
v 75.617706 6.998340 53.480007
v 75.617706 6.996216 52.120201
v 62.562454 -0.038205 35.624165
v 62.562454 6.961795 35.624165
v 74.274734 6.997722 53.480007
v 74.285278 0.001939 53.506145
v 75.628250 0.002557 53.506145
v 75.628250 0.000434 52.146339
v 74.285278 -0.000931 52.146339
vt 0.1252 0.9204
vt 0.1878 0.6583
vt 0.1878 0.9204
vt 0.7172 0.8369
vt 0.7632 0.9438
vt 0.7172 0.9438
vt 0.4669 0.8151
vt 0.3104 0.5895
vt 0.4669 0.5896
vt 0.4669 0.0001
vt 0.3179 0.5513
vt 0.3134 0.0000
vt 0.5607 0.5139
vt 0.4669 0.5778
vt 0.4669 0.0000
vt 0.6859 0.0193
vt 0.5920 0.5511
vt 0.5920 0.0000
vt 0.0000 0.6583
vt 0.1252 0.8123
vt 0.0000 0.8123
vt 0.9721 0.3442
vt 0.9362 0.4939
vt 0.9529 0.3440
vt 0.0787 0.0057
vt 0.3134 0.3440
vt 0.0000 0.3358
vt 0.3104 0.5793
vt 0.4669 0.5793
vt 0.5294 0.9486
vt 0.5733 0.8870
vt 0.5733 0.9489
vt 0.5795 0.8189
vt 0.4669 0.8870
vt 0.4669 0.5778
vt 0.8867 0.3440
vt 0.7172 0.0000
vt 0.8867 0.0000
vt 0.3730 0.9851
vt 0.3104 0.8151
vt 0.3730 0.8151
vt 0.8737 0.3440
vt 0.9362 0.6881
vt 0.8737 0.6881
vt 0.9362 0.8582
vt 0.8737 0.6881
vt 0.9362 0.6881
vt 0.2612 0.6583
vt 0.1087 0.5438
vt 0.2612 0.3440
vt 0.8111 0.8855
vt 0.8737 0.6858
vt 0.8737 0.8855
vt 0.9493 0.0000
vt 0.8867 0.3138
vt 0.8867 0.0000
vt 0.8111 1.0000
vt 0.8737 0.8855
vt 0.8737 1.0000
vt 0.7172 0.8952
vt 0.6233 0.5511
vt 0.7172 0.5511
vt 0.4669 0.9960
vt 0.5294 0.8870
vt 0.5294 0.9960
vt 0.1878 0.7798
vt 0.2807 0.6583
vt 0.2338 0.8114
vt 0.1878 0.9327
vt 0.2941 0.8114
vt 0.2941 0.9328
vt 0.3050 0.3440
vt 0.2612 0.4971
vt 0.2612 0.3440
vt 0.9665 0.9651
vt 0.8737 0.8582
vt 0.9665 0.8582
vt 0.7632 0.8369
vt 0.8101 0.9438
vt 0.7172 0.8369
vt 0.7195 0.6903
vt 0.7195 0.8338
vt 0.1205 0.8124
vt 0.0892 0.9608
vt 0.0892 0.8123
vt 0.3050 0.7074
vt 0.2998 0.6178
vt 0.3050 0.6178
vt 0.8087 0.8338
vt 0.8111 0.8369
vt 0.8111 0.6858
vt 0.7172 0.6858
vt 0.8087 0.6903
vt 0.0892 0.9559
vt 0.0000 0.8123
vt 0.0892 0.8123
vt 0.3050 0.4887
vt 0.3103 0.3440
vt 0.3103 0.4887
vt 0.3103 0.6333
vt 0.3050 0.4887
vt 0.3103 0.4887
vt 0.2946 0.6178
vt 0.2998 0.7074
vt 0.2946 0.7074
vt 0.7610 0.6778
vt 0.8737 0.6858
vt 0.7610 0.6858
vt 0.7610 0.5459
vt 0.8737 0.3440
vt 0.8737 0.6778
vt 0.4280 0.9456
vt 0.3730 0.9401
vt 0.4300 0.9373
vt 0.3050 0.4972
vt 0.2612 0.6177
vt 0.2612 0.4971
vt 0.4362 0.9476
vt 0.4382 0.9393
vt 0.4459 0.9493
vt 0.3030 0.7514
vt 0.2946 0.7074
vt 0.3030 0.7074
vt 0.2861 0.7058
vt 0.2946 0.6618
vt 0.2946 0.7058
vt 0.2861 0.6178
vt 0.2946 0.6618
vt 0.2861 0.6618
vt 0.2945 0.7058
vt 0.2861 0.7498
vt 0.2861 0.7058
vt 0.1252 0.6583
vt 0.3104 0.8151
vt 0.4669 0.5793
vt 0.5920 0.0000
vt 0.5607 0.5778
vt 0.5920 0.5139
vt 0.6859 0.0000
vt 0.7172 0.0193
vt 0.7172 0.5511
vt 0.1252 0.6583
vt 1.0000 0.4939
vt 0.0051 0.3440
vt 0.0887 0.0000
vt 0.3134 0.0000
vt 0.5294 0.8871
vt 0.6233 0.5778
vt 0.5795 0.8870
vt 0.6233 0.8189
vt 0.7172 0.3440
vt 0.3104 0.9851
vt 0.9362 0.3440
vt 0.8737 0.8582
vt 0.0000 0.6583
vt 0.1087 0.3440
vt 0.0000 0.5438
vt 0.8111 0.6858
vt 0.9493 0.3138
vt 0.8111 0.8855
vt 0.6233 0.8952
vt 0.4669 0.8870
vt 0.2807 0.8114
vt 0.1878 0.6583
vt 0.1878 0.8114
vt 0.3050 0.4971
vt 0.8737 0.9651
vt 0.8101 0.8369
vt 0.1205 0.9608
vt 0.2998 0.7074
vt 0.0000 0.9559
vt 0.3050 0.3440
vt 0.3050 0.6333
vt 0.2998 0.6178
vt 0.7172 0.5459
vt 0.7172 0.3440
vt 0.3829 0.8192
vt 0.4459 0.8151
vt 0.4390 0.9561
vt 0.3050 0.6178
vt 0.2946 0.7514
vt 0.2861 0.6618
vt 0.2946 0.6178
vt 0.2945 0.7498
vn 0.0000 0.0000 -1.0000
vn -0.8257 0.0000 0.5642
vn 0.0000 1.0000 0.0000
vn -0.0114 -0.0000 0.9999
vn 0.0194 -0.0001 -0.9998
vn -0.9999 0.0000 -0.0107
vn 0.0000 -1.0000 0.0000
vn 0.4918 0.0000 -0.8707
vn 0.2958 0.0029 0.9552
vn -0.0000 0.0000 1.0000
vn -1.0000 0.0000 0.0000
vn 1.0000 0.0000 0.0000
vn 0.9845 0.0308 -0.1727
vn 0.9925 -0.0001 0.1225
vn 0.1728 0.0000 0.9850
vn 0.9807 0.0000 -0.1956
vn 0.9876 0.0000 -0.1568
vn 0.9845 -0.0308 -0.1727
vn 0.9850 0.0000 -0.1728
vn -0.1728 0.0000 -0.9850
vn 0.8491 0.0000 0.5283
vn 0.9725 -0.0019 -0.2329
vn -0.0001 -1.0000 0.0021
vn 0.9882 0.0000 -0.1535
vn 0.0018 -1.0000 0.0016
vn -0.0000 0.0037 1.0000
vn 1.0000 0.0015 -0.0000
vn -1.0000 -0.0015 0.0000
vn 0.0000 -0.0037 -1.0000
vn -0.0114 0.0001 0.9999
vn 0.0190 0.0000 -0.9998
vn 0.0194 0.0004 -0.9998
vn 0.0194 0.0000 -0.9998
vn 0.2978 0.0000 0.9546
vn 0.9925 0.0000 0.1225
vn 0.9721 0.0000 -0.2344
vn 0.9722 0.0096 -0.2339
vn 0.9727 0.0000 -0.2319
vn 0.0038 -1.0000 -0.0007
vn 0.0010 -1.0000 -0.0004
vn -0.0000 -1.0000 0.0027
vn 0.0005 -1.0000 0.0019
vn 0.0038 -1.0000 -0.0009
vn 0.0018 -1.0000 0.0011
s off
f 36/1/1 4/2/1 3/3/1
f 42/4/2 6/5/2 1/6/2
f 20/7/1 28/8/1 8/9/1
f 22/10/3 24/11/3 21/12/3
f 49/13/4 23/14/4 22/15/4
f 50/16/5 21/17/5 24/18/5
f 15/19/6 21/20/6 10/21/6
f 47/22/7 49/23/7 50/24/7
f 26/25/3 29/26/3 25/27/3
f 8/9/8 26/28/8 12/29/8
f 62/30/9 66/31/9 61/32/9
f 63/33/10 30/34/10 29/35/10
f 32/36/3 34/37/3 31/38/3
f 19/39/10 32/40/10 13/41/10
f 13/42/11 31/43/11 14/44/11
f 14/45/1 34/46/1 20/47/1
f 35/48/3 39/49/3 38/50/3
f 40/51/11 7/52/11 18/53/11
f 35/54/12 17/55/12 4/56/12
f 37/57/11 3/58/11 5/59/11
f 33/60/11 27/61/11 34/62/11
f 39/63/10 5/64/10 7/65/10
f 42/66/3 45/67/3 41/68/3
f 43/69/10 1/70/10 2/71/10
f 44/72/1 38/73/1 40/74/1
f 45/75/12 2/76/12 17/77/12
f 41/78/11 18/79/11 6/5/11
f 24/80/13 11/81/13 51/82/13
f 50/83/14 48/84/14 9/85/14
f 51/86/15 57/87/15 53/88/15
f 24/80/16 53/89/16 47/90/16
f 46/91/17 11/81/17 23/92/17
f 47/90/18 52/93/18 46/91/18
f 57/94/19 54/95/19 56/96/19
f 51/97/7 54/98/7 55/99/7
f 53/100/3 56/101/3 52/102/3
f 52/103/20 54/104/20 11/105/20
f 59/106/21 30/107/21 16/108/21
f 62/109/22 26/110/22 25/111/22
f 68/112/23 63/113/23 58/114/23
f 60/115/24 67/116/24 63/117/24
f 64/118/25 65/119/25 59/120/25
f 64/121/26 69/122/26 70/123/26
f 64/124/27 71/125/27 65/126/27
f 68/127/28 72/128/28 69/129/28
f 65/130/29 72/131/29 58/132/29
f 36/1/1 35/133/1 4/2/1
f 42/4/2 41/78/2 6/5/2
f 20/7/1 27/134/1 28/8/1
f 22/10/3 23/135/3 24/11/3
f 22/15/4 15/136/4 49/13/4
f 49/13/4 46/137/4 23/14/4
f 15/136/30 48/138/30 49/13/30
f 24/18/31 47/139/31 50/16/31
f 50/16/32 9/140/32 10/141/32
f 10/141/33 21/17/33 50/16/33
f 15/19/6 22/142/6 21/20/6
f 47/22/7 46/143/7 49/23/7
f 30/144/3 25/27/3 29/26/3
f 26/25/3 28/145/3 29/26/3
f 27/146/3 29/26/3 28/145/3
f 8/9/8 28/8/8 26/28/8
f 62/30/34 67/147/34 66/31/34
f 29/35/10 19/148/10 63/33/10
f 63/33/10 16/149/10 30/34/10
f 19/148/10 60/150/10 63/33/10
f 32/36/3 33/151/3 34/37/3
f 19/39/10 33/152/10 32/40/10
f 13/42/11 32/153/11 31/43/11
f 14/45/1 31/154/1 34/46/1
f 35/48/3 36/155/3 39/49/3
f 39/49/3 40/156/3 38/50/3
f 36/155/3 37/157/3 39/49/3
f 40/51/11 39/158/11 7/52/11
f 35/54/12 38/159/12 17/55/12
f 37/57/11 36/160/11 3/58/11
f 33/60/11 29/161/11 27/61/11
f 39/63/10 37/162/10 5/64/10
f 44/163/3 41/68/3 45/67/3
f 42/66/3 43/164/3 45/67/3
f 43/69/10 42/165/10 1/70/10
f 44/72/1 45/166/1 38/73/1
f 45/75/12 43/167/12 2/76/12
f 41/78/11 44/168/11 18/79/11
f 24/80/13 23/92/13 11/81/13
f 50/83/35 49/169/35 48/84/35
f 51/86/15 55/170/15 57/87/15
f 24/80/16 51/82/16 53/89/16
f 46/91/17 52/93/17 11/81/17
f 47/90/18 53/89/18 52/93/18
f 57/94/19 55/171/19 54/95/19
f 51/97/7 11/172/7 54/98/7
f 53/100/3 57/173/3 56/101/3
f 52/103/20 56/174/20 54/104/20
f 59/106/21 25/111/21 30/107/21
f 25/111/36 59/106/36 62/109/36
f 62/109/37 61/175/37 12/176/37
f 12/176/38 26/110/38 62/109/38
f 67/177/39 62/178/39 58/114/39
f 62/178/40 65/119/40 58/114/40
f 68/112/41 16/179/41 63/113/41
f 67/177/23 58/114/23 63/113/23
f 60/115/24 66/180/24 67/116/24
f 16/179/42 68/112/42 64/118/42
f 65/119/43 62/178/43 59/120/43
f 16/179/44 64/118/44 59/120/44
f 64/121/26 68/181/26 69/122/26
f 64/124/27 70/182/27 71/125/27
f 68/127/28 58/183/28 72/128/28
f 65/130/29 71/184/29 72/131/29
