# Blender v2.77 (sub 0) OBJ File: 'tire.blend'
# www.blender.org
o Cylinder
v 0.000000 0.000000 -0.100000
v 0.000000 0.471345 -0.100000
v 0.108700 0.458640 -0.100000
v 0.211539 0.421209 -0.100000
v 0.302975 0.361071 -0.100000
v 0.378077 0.281468 -0.100000
v 0.432797 0.186690 -0.100000
v 0.464184 0.081848 -0.100000
v 0.470548 -0.027406 -0.100000
v 0.451544 -0.135183 -0.100000
v 0.408197 -0.235673 -0.100000
v 0.342844 -0.323457 -0.100000
v 0.259008 -0.393803 -0.100000
v 0.161209 -0.442919 -0.100000
v 0.054720 -0.468158 -0.100000
v -0.054720 -0.468158 -0.100000
v -0.161210 -0.442919 -0.100000
v -0.259008 -0.393803 -0.100000
v -0.342844 -0.323456 -0.100000
v -0.408197 -0.235672 -0.100000
v -0.451544 -0.135183 -0.100000
v -0.470547 -0.027406 -0.100000
v -0.464184 0.081848 -0.100000
v -0.432797 0.186690 -0.100000
v -0.378077 0.281467 -0.100000
v -0.302975 0.361071 -0.100000
v -0.211540 0.421209 -0.100000
v -0.108700 0.458640 -0.100000
v 0.000000 0.500000 -0.080000
v 0.115308 0.486522 -0.080000
v 0.224400 0.446816 -0.080000
v 0.321394 0.383022 -0.080000
v 0.401062 0.298579 -0.080000
v 0.459108 0.198040 -0.080000
v 0.492404 0.086824 -0.080000
v 0.499154 -0.029072 -0.080000
v 0.478995 -0.143402 -0.080000
v 0.433013 -0.250000 -0.080000
v 0.363687 -0.343121 -0.080000
v 0.274754 -0.417744 -0.080000
v 0.171010 -0.469846 -0.080000
v 0.058046 -0.496619 -0.080000
v -0.058047 -0.496619 -0.080000
v -0.171010 -0.469846 -0.080000
v -0.274755 -0.417744 -0.080000
v -0.363687 -0.343121 -0.080000
v -0.433013 -0.250000 -0.080000
v -0.478995 -0.143402 -0.080000
v -0.499154 -0.029073 -0.080000
v -0.492404 0.086824 -0.080000
v -0.459108 0.198040 -0.080000
v -0.401062 0.298579 -0.080000
v -0.321394 0.383022 -0.080000
v -0.224400 0.446816 -0.080000
v -0.115309 0.486522 -0.080000
v 0.000000 0.000000 0.100000
v 0.000000 0.471345 0.100000
v 0.108700 0.458640 0.100000
v 0.211539 0.421209 0.100000
v 0.302975 0.361071 0.100000
v 0.378077 0.281468 0.100000
v 0.432797 0.186690 0.100000
v 0.464184 0.081848 0.100000
v 0.470548 -0.027406 0.100000
v 0.451544 -0.135183 0.100000
v 0.408197 -0.235673 0.100000
v 0.342844 -0.323457 0.100000
v 0.259008 -0.393803 0.100000
v 0.161209 -0.442919 0.100000
v 0.054720 -0.468158 0.100000
v -0.054720 -0.468158 0.100000
v -0.161210 -0.442919 0.100000
v -0.259008 -0.393803 0.100000
v -0.342844 -0.323456 0.100000
v -0.408197 -0.235672 0.100000
v -0.451544 -0.135183 0.100000
v -0.470547 -0.027406 0.100000
v -0.464184 0.081848 0.100000
v -0.432797 0.186690 0.100000
v -0.378077 0.281467 0.100000
v -0.302975 0.361071 0.100000
v -0.211540 0.421209 0.100000
v -0.108700 0.458640 0.100000
v 0.000000 0.500000 0.080000
v 0.115308 0.486522 0.080000
v 0.224400 0.446816 0.080000
v 0.321394 0.383022 0.080000
v 0.401062 0.298579 0.080000
v 0.459108 0.198040 0.080000
v 0.492404 0.086824 0.080000
v 0.499154 -0.029072 0.080000
v 0.478995 -0.143402 0.080000
v 0.433013 -0.250000 0.080000
v 0.363687 -0.343121 0.080000
v 0.274754 -0.417744 0.080000
v 0.171010 -0.469846 0.080000
v 0.058046 -0.496619 0.080000
v -0.058047 -0.496619 0.080000
v -0.171010 -0.469846 0.080000
v -0.274755 -0.417744 0.080000
v -0.363687 -0.343121 0.080000
v -0.433013 -0.250000 0.080000
v -0.478995 -0.143402 0.080000
v -0.499154 -0.029073 0.080000
v -0.492404 0.086824 0.080000
v -0.459108 0.198040 0.080000
v -0.401062 0.298579 0.080000
v -0.321394 0.383022 0.080000
v -0.224400 0.446816 0.080000
v -0.115309 0.486522 0.080000
vt 0.5710 0.7425
vt 0.5856 0.4922
vt 0.6429 0.5023
vt 0.6964 0.5253
vt 0.7431 0.5601
vt 0.7805 0.6047
vt 0.8067 0.6567
vt 0.8201 0.7134
vt 0.8201 0.7716
vt 0.8067 0.8283
vt 0.7805 0.8803
vt 0.7431 0.9249
vt 0.6964 0.9597
vt 0.6429 0.9827
vt 0.5856 0.9928
vt 0.5275 0.9894
vt 0.4717 0.9727
vt 0.4213 0.9436
vt 0.3789 0.9037
vt 0.3469 0.8550
vt 0.3270 0.8003
vt 0.3203 0.7425
vt 0.3270 0.6847
vt 0.3469 0.6300
vt 0.3789 0.5813
vt 0.4213 0.5414
vt 0.4717 0.5123
vt 0.5275 0.4956
vt 0.0538 0.8380
vt 0.0225 0.8776
vt 0.0225 0.8380
vt 0.2539 0.8380
vt 0.0538 0.7987
vt 0.2539 0.7987
vt 0.0225 0.7987
vt 0.0538 0.7597
vt 0.2539 0.7597
vt 0.0225 0.7597
vt 0.0538 0.7211
vt 0.2539 0.7211
vt 0.0225 0.7211
vt 0.0538 0.6827
vt 0.2539 0.6827
vt 0.0225 0.6827
vt 0.0538 0.6446
vt 0.2539 0.6446
vt 0.0225 0.6446
vt 0.0538 0.6068
vt 0.2539 0.6068
vt 0.0225 0.6068
vt 0.2539 0.5692
vt 0.0538 0.5692
vt 0.0225 0.5692
vt 0.0538 0.5320
vt 0.2539 0.5320
vt 0.0225 0.5320
vt 0.0538 0.4950
vt 0.2539 0.4950
vt 0.0225 0.4950
vt 0.0538 0.4582
vt 0.2539 0.4582
vt 0.0225 0.4582
vt 0.0538 0.4218
vt 0.2539 0.4218
vt 0.0225 0.4218
vt 0.0538 0.3856
vt 0.2539 0.3856
vt 0.0225 0.3856
vt 0.0538 0.3497
vt 0.2539 0.3497
vt 0.0225 0.3497
vt 0.0538 0.3140
vt 0.2539 0.3140
vt 0.0225 0.3140
vt 0.0538 0.2786
vt 0.2539 0.2786
vt 0.0225 0.2786
vt 0.0538 0.2434
vt 0.2539 0.2434
vt 0.0225 0.2434
vt 0.0538 0.2085
vt 0.2539 0.2085
vt 0.0225 0.2085
vt 0.0538 0.1739
vt 0.2539 0.1739
vt 0.0225 0.1739
vt 0.0538 0.1395
vt 0.2539 0.1395
vt 0.0225 0.1395
vt 0.0538 0.1053
vt 0.2539 0.1053
vt 0.0225 0.1053
vt 0.0538 0.0714
vt 0.2539 0.0714
vt 0.0225 0.0714
vt 0.0538 0.0374
vt 0.2539 0.0374
vt 0.0225 0.0374
vt 0.0538 -0.0000
vt 0.2539 -0.0000
vt 0.0225 -0.0000
vt 0.2539 1.0000
vt 0.0538 0.9584
vt 0.2539 0.9584
vt 0.0225 0.9584
vt 0.0538 1.0000
vt 0.0225 1.0000
vt 0.0538 0.9177
vt 0.2539 0.9177
vt 0.0225 0.9177
vt 0.0538 0.8776
vt 0.2539 0.8776
vt 0.7391 0.2563
vt 0.8110 0.4965
vt 0.7537 0.5066
vt 0.8645 0.4734
vt 0.9112 0.4387
vt 0.9486 0.3941
vt 0.9748 0.3420
vt 0.9882 0.2854
vt 0.9882 0.2272
vt 0.9748 0.1705
vt 0.9486 0.1185
vt 0.9112 0.0739
vt 0.8645 0.0391
vt 0.8110 0.0161
vt 0.7537 0.0060
vt 0.6956 0.0093
vt 0.6398 0.0260
vt 0.5894 0.0552
vt 0.5470 0.0951
vt 0.5151 0.1437
vt 0.4951 0.1985
vt 0.4884 0.2563
vt 0.4951 0.3141
vt 0.5151 0.3688
vt 0.5470 0.4175
vt 0.5894 0.4574
vt 0.6398 0.4865
vt 0.6956 0.5032
vt 0.2835 0.8776
vt 0.2835 0.8380
vt 0.2835 0.7987
vt 0.2835 0.7597
vt 0.2835 0.7211
vt 0.2835 0.6827
vt 0.2835 0.6446
vt 0.2835 0.6068
vt 0.2835 0.5692
vt 0.2835 0.5320
vt 0.2835 0.4950
vt 0.2835 0.4582
vt 0.2835 0.4218
vt 0.2835 0.3856
vt 0.2835 0.3497
vt 0.2835 0.3140
vt 0.2835 0.2786
vt 0.2835 0.2434
vt 0.2835 0.2085
vt 0.2835 0.1739
vt 0.2835 0.1395
vt 0.2835 0.1053
vt 0.2835 0.0714
vt 0.2835 0.0374
vt 0.2835 -0.0000
vt 0.2835 1.0000
vt 0.2835 0.9584
vt 0.2835 0.9177
vn -0.0000 0.0000 -1.0000
vn -0.0667 0.5711 -0.8182
vn -0.3420 0.9397 0.0000
vn -0.1966 0.5403 -0.8182
vn -0.5495 0.8355 0.0000
vn -0.3159 0.4804 -0.8182
vn -0.7274 0.6862 0.0000
vn -0.4182 0.3946 -0.8182
vn -0.8660 0.5000 0.0000
vn -0.4979 0.2875 -0.8182
vn -0.9580 0.2868 0.0000
vn -0.5508 0.1649 -0.8182
vn -0.9983 0.0581 0.0000
vn -0.5740 0.0334 -0.8182
vn -0.9848 -0.1736 0.0000
vn -0.5662 -0.0998 -0.8182
vn -0.9182 -0.3961 0.0000
vn -0.5279 -0.2277 -0.8182
vn -0.8021 -0.5972 0.0000
vn -0.4612 -0.3433 -0.8182
vn -0.6428 -0.7660 0.0000
vn -0.3696 -0.4404 -0.8182
vn -0.4488 -0.8936 0.0000
vn -0.2580 -0.5138 -0.8182
vn -0.2306 -0.9730 0.0000
vn -0.1326 -0.5595 -0.8182
vn -0.0000 -1.0000 0.0000
vn -0.0000 -0.5750 -0.8182
vn 0.2306 -0.9730 0.0000
vn 0.1326 -0.5595 -0.8182
vn 0.4488 -0.8936 0.0000
vn 0.2580 -0.5138 -0.8182
vn 0.6428 -0.7660 0.0000
vn 0.3696 -0.4404 -0.8182
vn 0.8021 -0.5972 0.0000
vn 0.4612 -0.3433 -0.8182
vn 0.9182 -0.3961 0.0000
vn 0.5279 -0.2277 -0.8182
vn 0.9848 -0.1736 -0.0000
vn 0.5662 -0.0998 -0.8182
vn 0.9983 0.0581 0.0000
vn 0.5740 0.0334 -0.8182
vn 0.9580 0.2868 0.0000
vn 0.5508 0.1649 -0.8182
vn 0.8660 0.5000 0.0000
vn 0.4979 0.2875 -0.8182
vn 0.7274 0.6862 0.0000
vn 0.4182 0.3946 -0.8182
vn 0.5495 0.8355 0.0000
vn 0.3159 0.4804 -0.8182
vn 0.3420 0.9397 0.0000
vn 0.1966 0.5403 -0.8182
vn 0.1161 0.9932 0.0000
vn 0.0667 0.5711 -0.8182
vn -0.0000 -0.0000 1.0000
vn -0.0667 0.5711 0.8182
vn -0.1966 0.5403 0.8182
vn -0.3159 0.4804 0.8182
vn -0.4182 0.3946 0.8182
vn -0.4979 0.2875 0.8182
vn -0.5508 0.1649 0.8182
vn -0.5740 0.0334 0.8182
vn -0.5662 -0.0998 0.8182
vn -0.5279 -0.2277 0.8182
vn -0.4612 -0.3433 0.8182
vn -0.3696 -0.4404 0.8182
vn -0.2580 -0.5138 0.8182
vn -0.1326 -0.5595 0.8182
vn -0.0000 -0.5750 0.8182
vn 0.1326 -0.5595 0.8182
vn 0.2580 -0.5138 0.8182
vn 0.3696 -0.4404 0.8182
vn 0.4612 -0.3433 0.8182
vn 0.5279 -0.2277 0.8182
vn 0.5662 -0.0998 0.8182
vn 0.5740 0.0334 0.8182
vn 0.5508 0.1649 0.8182
vn 0.4979 0.2875 0.8182
vn 0.4182 0.3946 0.8182
vn 0.3159 0.4804 0.8182
vn 0.1966 0.5403 0.8182
vn 0.0667 0.5711 0.8182
vn -0.1161 0.9932 0.0000
s off
f 1/1/1 2/2/1 3/3/1
f 1/1/1 3/3/1 4/4/1
f 1/1/1 4/4/1 5/5/1
f 1/1/1 5/5/1 6/6/1
f 1/1/1 6/6/1 7/7/1
f 1/1/1 7/7/1 8/8/1
f 1/1/1 8/8/1 9/9/1
f 1/1/1 9/9/1 10/10/1
f 1/1/1 10/10/1 11/11/1
f 1/1/1 11/11/1 12/12/1
f 1/1/1 12/12/1 13/13/1
f 1/1/1 13/13/1 14/14/1
f 1/1/1 14/14/1 15/15/1
f 1/1/1 15/15/1 16/16/1
f 1/1/1 16/16/1 17/17/1
f 1/1/1 17/17/1 18/18/1
f 1/1/1 18/18/1 19/19/1
f 1/1/1 19/19/1 20/20/1
f 1/1/1 20/20/1 21/21/1
f 1/1/1 21/21/1 22/22/1
f 1/1/1 22/22/1 23/23/1
f 1/1/1 23/23/1 24/24/1
f 1/1/1 24/24/1 25/25/1
f 1/1/1 25/25/1 26/26/1
f 1/1/1 26/26/1 27/27/1
f 1/1/1 27/27/1 28/28/1
f 1/1/1 28/28/1 2/2/1
f 55/29/2 2/30/2 28/31/2
f 110/32/3 54/33/3 109/34/3
f 54/33/4 28/31/4 27/35/4
f 109/34/5 53/36/5 108/37/5
f 53/36/6 27/35/6 26/38/6
f 108/37/7 52/39/7 107/40/7
f 52/39/8 26/38/8 25/41/8
f 107/40/9 51/42/9 106/43/9
f 51/42/10 25/41/10 24/44/10
f 106/43/11 50/45/11 105/46/11
f 23/47/12 51/42/12 24/44/12
f 105/46/13 49/48/13 104/49/13
f 49/48/14 23/47/14 22/50/14
f 103/51/15 49/48/15 48/52/15
f 21/53/16 49/48/16 22/50/16
f 103/51/17 47/54/17 102/55/17
f 47/54/18 21/53/18 20/56/18
f 102/55/19 46/57/19 101/58/19
f 46/57/20 20/56/20 19/59/20
f 101/58/21 45/60/21 100/61/21
f 18/62/22 46/57/22 19/59/22
f 100/61/23 44/63/23 99/64/23
f 44/63/24 18/62/24 17/65/24
f 99/64/25 43/66/25 98/67/25
f 43/66/26 17/65/26 16/68/26
f 98/67/27 42/69/27 97/70/27
f 15/71/28 43/66/28 16/68/28
f 97/70/29 41/72/29 96/73/29
f 41/72/30 15/71/30 14/74/30
f 96/73/31 40/75/31 95/76/31
f 13/77/32 41/72/32 14/74/32
f 95/76/33 39/78/33 94/79/33
f 39/78/34 13/77/34 12/80/34
f 94/79/35 38/81/35 93/82/35
f 38/81/36 12/80/36 11/83/36
f 93/82/37 37/84/37 92/85/37
f 37/84/38 11/83/38 10/86/38
f 92/85/39 36/87/39 91/88/39
f 36/87/40 10/86/40 9/89/40
f 91/88/41 35/90/41 90/91/41
f 35/90/42 9/89/42 8/92/42
f 90/91/43 34/93/43 89/94/43
f 34/93/44 8/92/44 7/95/44
f 89/94/45 33/96/45 88/97/45
f 6/98/46 34/93/46 7/95/46
f 88/97/47 32/99/47 87/100/47
f 32/99/48 6/98/48 5/101/48
f 87/102/49 31/103/49 86/104/49
f 4/105/50 32/106/50 5/107/50
f 86/104/51 30/108/51 85/109/51
f 30/108/52 4/105/52 3/110/52
f 85/109/53 29/111/53 84/112/53
f 29/111/54 3/110/54 2/30/54
f 56/113/55 58/114/55 57/115/55
f 56/113/55 59/116/55 58/114/55
f 56/113/55 60/117/55 59/116/55
f 56/113/55 61/118/55 60/117/55
f 56/113/55 62/119/55 61/118/55
f 56/113/55 63/120/55 62/119/55
f 56/113/55 64/121/55 63/120/55
f 56/113/55 65/122/55 64/121/55
f 56/113/55 66/123/55 65/122/55
f 56/113/55 67/124/55 66/123/55
f 56/113/55 68/125/55 67/124/55
f 56/113/55 69/126/55 68/125/55
f 56/113/55 70/127/55 69/126/55
f 56/113/55 71/128/55 70/127/55
f 56/113/55 72/129/55 71/128/55
f 56/113/55 73/130/55 72/129/55
f 56/113/55 74/131/55 73/130/55
f 56/113/55 75/132/55 74/131/55
f 56/113/55 76/133/55 75/132/55
f 56/113/55 77/134/55 76/133/55
f 56/113/55 78/135/55 77/134/55
f 56/113/55 79/136/55 78/135/55
f 56/113/55 80/137/55 79/136/55
f 56/113/55 81/138/55 80/137/55
f 56/113/55 82/139/55 81/138/55
f 56/113/55 83/140/55 82/139/55
f 56/113/55 57/115/55 83/140/55
f 57/141/56 110/32/56 83/142/56
f 82/143/57 110/32/57 109/34/57
f 82/143/58 108/37/58 81/144/58
f 81/144/59 107/40/59 80/145/59
f 80/145/60 106/43/60 79/146/60
f 78/147/61 106/43/61 105/46/61
f 78/147/62 104/49/62 77/148/62
f 77/148/63 103/51/63 76/149/63
f 76/149/64 102/55/64 75/150/64
f 75/150/65 101/58/65 74/151/65
f 73/152/66 101/58/66 100/61/66
f 72/153/67 100/61/67 99/64/67
f 71/154/68 99/64/68 98/67/68
f 71/154/69 97/70/69 70/155/69
f 69/156/70 97/70/70 96/73/70
f 69/156/71 95/76/71 68/157/71
f 68/157/72 94/79/72 67/158/72
f 67/158/73 93/82/73 66/159/73
f 66/159/74 92/85/74 65/160/74
f 65/160/75 91/88/75 64/161/75
f 63/162/76 91/88/76 90/91/76
f 62/163/77 90/91/77 89/94/77
f 61/164/78 89/94/78 88/97/78
f 61/164/79 87/100/79 60/165/79
f 60/166/80 86/104/80 59/167/80
f 58/168/81 86/104/81 85/109/81
f 58/168/82 84/112/82 57/141/82
f 84/112/83 55/29/83 110/32/83
f 55/29/2 29/111/2 2/30/2
f 110/32/3 55/29/3 54/33/3
f 54/33/4 55/29/4 28/31/4
f 109/34/5 54/33/5 53/36/5
f 53/36/6 54/33/6 27/35/6
f 108/37/7 53/36/7 52/39/7
f 52/39/8 53/36/8 26/38/8
f 107/40/9 52/39/9 51/42/9
f 51/42/10 52/39/10 25/41/10
f 106/43/11 51/42/11 50/45/11
f 23/47/12 50/45/12 51/42/12
f 105/46/13 50/45/13 49/48/13
f 49/48/14 50/45/14 23/47/14
f 103/51/15 104/49/15 49/48/15
f 21/53/16 48/52/16 49/48/16
f 103/51/17 48/52/17 47/54/17
f 47/54/18 48/52/18 21/53/18
f 102/55/19 47/54/19 46/57/19
f 46/57/20 47/54/20 20/56/20
f 101/58/21 46/57/21 45/60/21
f 18/62/22 45/60/22 46/57/22
f 100/61/23 45/60/23 44/63/23
f 44/63/24 45/60/24 18/62/24
f 99/64/25 44/63/25 43/66/25
f 43/66/26 44/63/26 17/65/26
f 98/67/27 43/66/27 42/69/27
f 15/71/28 42/69/28 43/66/28
f 97/70/29 42/69/29 41/72/29
f 41/72/30 42/69/30 15/71/30
f 96/73/31 41/72/31 40/75/31
f 13/77/32 40/75/32 41/72/32
f 95/76/33 40/75/33 39/78/33
f 39/78/34 40/75/34 13/77/34
f 94/79/35 39/78/35 38/81/35
f 38/81/36 39/78/36 12/80/36
f 93/82/37 38/81/37 37/84/37
f 37/84/38 38/81/38 11/83/38
f 92/85/39 37/84/39 36/87/39
f 36/87/40 37/84/40 10/86/40
f 91/88/41 36/87/41 35/90/41
f 35/90/42 36/87/42 9/89/42
f 90/91/43 35/90/43 34/93/43
f 34/93/44 35/90/44 8/92/44
f 89/94/45 34/93/45 33/96/45
f 6/98/46 33/96/46 34/93/46
f 88/97/47 33/96/47 32/99/47
f 32/99/48 33/96/48 6/98/48
f 87/102/49 32/106/49 31/103/49
f 4/105/50 31/103/50 32/106/50
f 86/104/51 31/103/51 30/108/51
f 30/108/52 31/103/52 4/105/52
f 85/109/53 30/108/53 29/111/53
f 29/111/54 30/108/54 3/110/54
f 57/141/56 84/112/56 110/32/56
f 82/143/57 83/142/57 110/32/57
f 82/143/58 109/34/58 108/37/58
f 81/144/59 108/37/59 107/40/59
f 80/145/60 107/40/60 106/43/60
f 78/147/61 79/146/61 106/43/61
f 78/147/62 105/46/62 104/49/62
f 77/148/63 104/49/63 103/51/63
f 76/149/64 103/51/64 102/55/64
f 75/150/65 102/55/65 101/58/65
f 73/152/66 74/151/66 101/58/66
f 72/153/67 73/152/67 100/61/67
f 71/154/68 72/153/68 99/64/68
f 71/154/69 98/67/69 97/70/69
f 69/156/70 70/155/70 97/70/70
f 69/156/71 96/73/71 95/76/71
f 68/157/72 95/76/72 94/79/72
f 67/158/73 94/79/73 93/82/73
f 66/159/74 93/82/74 92/85/74
f 65/160/75 92/85/75 91/88/75
f 63/162/76 64/161/76 91/88/76
f 62/163/77 63/162/77 90/91/77
f 61/164/78 62/163/78 89/94/78
f 61/164/79 88/97/79 87/100/79
f 60/166/80 87/102/80 86/104/80
f 58/168/81 59/167/81 86/104/81
f 58/168/82 85/109/82 84/112/82
f 84/112/83 29/111/83 55/29/83
